<svg class="w-4 h-4" viewBox="0 0 26 18" fill="none" xmlns="http://www.w3.org/2000/svg">
    <rect y="0.529053" width="25.7522" height="17.1429" rx="2" fill="white"></rect>
    <mask id="mask0" style="mask-type:alpha" maskUnits="userSpaceOnUse" x="0" y="0" width="26" height="18">
        <rect y="0.529053" width="25.7522" height="17.1429" rx="2" fill="white"></rect>
    </mask>
    <g mask="url(#mask0)">
        <path fill-rule="evenodd" clip-rule="evenodd" d="M25.7522 0.529053H0V1.67191H25.7522V0.529053ZM25.7522 2.81477H0V3.95763H25.7522V2.81477ZM0 5.10048H25.7522V6.24333H0V5.10048ZM25.7522 7.3862H0V8.52905H25.7522V7.3862ZM0 9.67192H25.7522V10.8148H0V9.67192ZM25.7522 11.9576H0V13.1005H25.7522V11.9576ZM0 14.2433H25.7522V15.3862H0V14.2433ZM25.7522 16.5291H0V17.6719H25.7522V16.5291Z" fill="#D02F44"></path>
        <rect y="0.529053" width="11.0367" height="8" fill="#46467F"></rect>
        <g filter="url(#filter0_d)">
            <path fill-rule="evenodd" clip-rule="evenodd" d="M2.45237 2.2433C2.45237 2.5589 2.17786 2.81473 1.83922 2.81473C1.50059 2.81473 1.22607 2.5589 1.22607 2.2433C1.22607 1.92771 1.50059 1.67188 1.83922 1.67188C2.17786 1.67188 2.45237 1.92771 2.45237 2.2433ZM4.90496 2.2433C4.90496 2.5589 4.63045 2.81473 4.29182 2.81473C3.95318 2.81473 3.67867 2.5589 3.67867 2.2433C3.67867 1.92771 3.95318 1.67188 4.29182 1.67188C4.63045 1.67188 4.90496 1.92771 4.90496 2.2433ZM6.74441 2.81473C7.08304 2.81473 7.35756 2.5589 7.35756 2.2433C7.35756 1.92771 7.08304 1.67188 6.74441 1.67188C6.40578 1.67188 6.13126 1.92771 6.13126 2.2433C6.13126 2.5589 6.40578 2.81473 6.74441 2.81473ZM9.81015 2.2433C9.81015 2.5589 9.53564 2.81473 9.197 2.81473C8.85837 2.81473 8.58386 2.5589 8.58386 2.2433C8.58386 1.92771 8.85837 1.67188 9.197 1.67188C9.53564 1.67188 9.81015 1.92771 9.81015 2.2433ZM3.06552 3.95758C3.40415 3.95758 3.67867 3.70175 3.67867 3.38616C3.67867 3.07056 3.40415 2.81473 3.06552 2.81473C2.72689 2.81473 2.45237 3.07056 2.45237 3.38616C2.45237 3.70175 2.72689 3.95758 3.06552 3.95758ZM6.13126 3.38616C6.13126 3.70175 5.85675 3.95758 5.51811 3.95758C5.17948 3.95758 4.90496 3.70175 4.90496 3.38616C4.90496 3.07056 5.17948 2.81473 5.51811 2.81473C5.85675 2.81473 6.13126 3.07056 6.13126 3.38616ZM7.97071 3.95758C8.30934 3.95758 8.58386 3.70175 8.58386 3.38616C8.58386 3.07056 8.30934 2.81473 7.97071 2.81473C7.63207 2.81473 7.35756 3.07056 7.35756 3.38616C7.35756 3.70175 7.63207 3.95758 7.97071 3.95758ZM9.81015 4.52902C9.81015 4.84462 9.53564 5.10045 9.197 5.10045C8.85837 5.10045 8.58386 4.84462 8.58386 4.52902C8.58386 4.21343 8.85837 3.9576 9.197 3.9576C9.53564 3.9576 9.81015 4.21343 9.81015 4.52902ZM6.74441 5.10045C7.08304 5.10045 7.35756 4.84462 7.35756 4.52902C7.35756 4.21343 7.08304 3.9576 6.74441 3.9576C6.40578 3.9576 6.13126 4.21343 6.13126 4.52902C6.13126 4.84462 6.40578 5.10045 6.74441 5.10045ZM4.90496 4.52902C4.90496 4.84462 4.63045 5.10045 4.29182 5.10045C3.95318 5.10045 3.67867 4.84462 3.67867 4.52902C3.67867 4.21343 3.95318 3.9576 4.29182 3.9576C4.63045 3.9576 4.90496 4.21343 4.90496 4.52902ZM1.83922 5.10045C2.17786 5.10045 2.45237 4.84462 2.45237 4.52902C2.45237 4.21343 2.17786 3.9576 1.83922 3.9576C1.50059 3.9576 1.22607 4.21343 1.22607 4.52902C1.22607 4.84462 1.50059 5.10045 1.83922 5.10045ZM3.67867 5.67188C3.67867 5.98747 3.40415 6.2433 3.06552 6.2433C2.72689 6.2433 2.45237 5.98747 2.45237 5.67188C2.45237 5.35628 2.72689 5.10045 3.06552 5.10045C3.40415 5.10045 3.67867 5.35628 3.67867 5.67188ZM5.51811 6.2433C5.85675 6.2433 6.13126 5.98747 6.13126 5.67188C6.13126 5.35628 5.85675 5.10045 5.51811 5.10045C5.17948 5.10045 4.90496 5.35628 4.90496 5.67188C4.90496 5.98747 5.17948 6.2433 5.51811 6.2433ZM8.58386 5.67188C8.58386 5.98747 8.30934 6.2433 7.97071 6.2433C7.63207 6.2433 7.35756 5.98747 7.35756 5.67188C7.35756 5.35628 7.63207 5.10045 7.97071 5.10045C8.30934 5.10045 8.58386 5.35628 8.58386 5.67188ZM9.197 7.38616C9.53564 7.38616 9.81015 7.13032 9.81015 6.81473C9.81015 6.49914 9.53564 6.2433 9.197 6.2433C8.85837 6.2433 8.58386 6.49914 8.58386 6.81473C8.58386 7.13032 8.85837 7.38616 9.197 7.38616ZM7.35756 6.81473C7.35756 7.13032 7.08304 7.38616 6.74441 7.38616C6.40578 7.38616 6.13126 7.13032 6.13126 6.81473C6.13126 6.49914 6.40578 6.2433 6.74441 6.2433C7.08304 6.2433 7.35756 6.49914 7.35756 6.81473ZM4.29182 7.38616C4.63045 7.38616 4.90496 7.13032 4.90496 6.81473C4.90496 6.49914 4.63045 6.2433 4.29182 6.2433C3.95318 6.2433 3.67867 6.49914 3.67867 6.81473C3.67867 7.13032 3.95318 7.38616 4.29182 7.38616ZM2.45237 6.81473C2.45237 7.13032 2.17786 7.38616 1.83922 7.38616C1.50059 7.38616 1.22607 7.13032 1.22607 6.81473C1.22607 6.49914 1.50059 6.2433 1.83922 6.2433C2.17786 6.2433 2.45237 6.49914 2.45237 6.81473Z" fill="url(#paint0_linear)"></path>
        </g>
    </g>
    <defs>
        <filter id="filter0_d" x="1.22607" y="1.67188" width="8.58408" height="6.71428" filterUnits="userSpaceOnUse" color-interpolation-filters="sRGB">
            <feFlood flood-opacity="0" result="BackgroundImageFix"></feFlood>
            <feColorMatrix in="SourceAlpha" type="matrix" values="0 0 0 0 0 0 0 0 0 0 0 0 0 0 0 0 0 0 127 0" result="hardAlpha"></feColorMatrix>
            <feOffset dy="1"></feOffset>
            <feColorMatrix type="matrix" values="0 0 0 0 0 0 0 0 0 0 0 0 0 0 0 0 0 0 0.06 0"></feColorMatrix>
            <feBlend mode="normal" in2="BackgroundImageFix" result="effect1_dropshadow-lg shadow-gray-200"></feBlend>
            <feBlend mode="normal" in="SourceGraphic" in2="effect1_dropshadow-lg shadow-gray-200" result="shape"></feBlend>
        </filter>
        <linearGradient id="paint0_linear" x1="1.22607" y1="1.67188" x2="1.22607" y2="7.38616" gradientUnits="userSpaceOnUse">
            <stop stop-color="white"></stop>
            <stop offset="1" stop-color="#F0F0F0"></stop>
        </linearGradient>
    </defs>
</svg>
